<svg xmlns="http://www.w3.org/2000/svg" viewBox="0 0 100 40" width="100" height="40" fill="none">
  <!-- Mirror of flourish-left via transform -->
  <!-- Main horizontal stem -->
  <path d="M95,20 C85,20 80,20 70,20" stroke="#b8935a" stroke-width="1.5" stroke-linecap="round"/>
  <!-- Upper vine curl -->
  <path d="M70,20 C62,20 58,14 62,10 C66,6 72,10 68,16 C66,19 62,19 58,16" stroke="#b8935a" stroke-width="1.2" stroke-linecap="round" fill="none"/>
  <!-- Lower vine curl -->
  <path d="M70,20 C62,20 58,26 62,30 C66,34 72,30 68,24 C66,21 62,21 58,24" stroke="#b8935a" stroke-width="1.2" stroke-linecap="round" fill="none"/>
  <!-- Tip stem continuation -->
  <path d="M58,16 C50,12 42,14 35,12 C28,10 22,8 15,10" stroke="#b8935a" stroke-width="1.2" stroke-linecap="round"/>
  <!-- Small leaf tip upper -->
  <path d="M15,10 C10,8 4,9 2,12 C4,14 10,13 15,10" stroke="#b8935a" stroke-width="1" fill="none" stroke-linecap="round"/>
  <!-- Small curl branch upper -->
  <path d="M45,13 C43,8 38,6 35,9 C37,13 42,13 45,13" stroke="#b8935a" stroke-width="1" fill="none" stroke-linecap="round"/>
  <!-- Small curl branch from lower -->
  <path d="M58,24 C50,28 42,26 35,28 C28,30 22,32 15,30" stroke="#b8935a" stroke-width="1.2" stroke-linecap="round"/>
  <!-- Leaf tip lower -->
  <path d="M15,30 C10,32 4,31 2,28 C4,26 10,27 15,30" stroke="#b8935a" stroke-width="1" fill="none" stroke-linecap="round"/>
  <!-- Small curl lower branch -->
  <path d="M45,27 C43,32 38,34 35,31 C37,27 42,27 45,27" stroke="#b8935a" stroke-width="1" fill="none" stroke-linecap="round"/>
  <!-- Dot accents -->
  <circle cx="90" cy="20" r="1.5" fill="#b8935a" opacity="0.7"/>
  <circle cx="80" cy="20" r="1" fill="#b8935a" opacity="0.5"/>
</svg>
