<svg xmlns="http://www.w3.org/2000/svg" viewBox="0 0 1920 60" width="1920" height="60" preserveAspectRatio="none">
  <path d="
    M0,0
    L0,15
    C20,12 35,18 50,22
    C65,26 75,16 90,14
    C105,12 115,20 130,24
    C145,28 158,18 172,15
    C186,12 196,22 212,26
    C228,30 240,18 256,16
    C272,14 284,24 298,28
    C312,32 326,20 340,17
    C354,14 366,24 382,28
    C398,32 412,19 428,16
    C444,13 456,23 472,27
    C488,31 502,18 518,15
    C534,12 548,24 564,28
    C580,32 592,19 608,17
    C624,15 638,26 652,30
    C666,34 680,20 694,17
    C708,14 722,25 736,29
    C750,33 764,19 780,16
    C796,13 810,24 824,27
    C838,30 852,19 868,16
    C884,13 898,23 912,27
    C926,31 940,18 956,15
    C972,12 986,24 1000,28
    C1014,32 1028,18 1044,16
    C1060,14 1074,25 1088,29
    C1102,33 1116,19 1132,17
    C1148,15 1162,26 1176,30
    C1190,34 1204,20 1218,17
    C1232,14 1246,25 1260,29
    C1274,33 1288,19 1304,16
    C1320,13 1334,24 1348,28
    C1362,32 1376,18 1392,16
    C1408,14 1422,25 1436,29
    C1450,33 1464,19 1480,16
    C1496,13 1510,24 1524,27
    C1538,30 1552,19 1568,16
    C1584,13 1598,23 1612,27
    C1626,31 1640,18 1656,15
    C1672,12 1686,24 1700,28
    C1714,32 1728,18 1744,16
    C1760,14 1774,25 1788,29
    C1802,33 1816,20 1832,17
    C1848,14 1864,26 1880,30
    C1896,34 1908,22 1920,20
    L1920,0
    Z
  " fill="#f4e8d5"/>
</svg>
