<svg xmlns="http://www.w3.org/2000/svg" viewBox="0 0 200 280" width="200" height="280">
  <rect width="200" height="280" fill="#1a1208"/>
  <rect x="2" y="2" width="196" height="276" fill="none" stroke="#b8935a" stroke-width="2"/>
  <!-- Seraphon comet sigil -->
  <path d="M100 30 L108 55 L135 55 L113 70 L121 95 L100 80 L79 95 L87 70 L65 55 L92 55 Z"
        fill="none" stroke="#b8935a" stroke-width="1.5"/>
  <!-- Sun rays -->
  <circle cx="100" cy="155" r="22" fill="none" stroke="#b8935a" stroke-width="1.5"/>
  <circle cx="100" cy="155" r="12" fill="#2a1f14" stroke="#b8935a" stroke-width="1"/>
  <line x1="100" y1="125" x2="100" y2="118" stroke="#b8935a" stroke-width="1.5" stroke-linecap="round"/>
  <line x1="100" y1="185" x2="100" y2="192" stroke="#b8935a" stroke-width="1.5" stroke-linecap="round"/>
  <line x1="70" y1="155" x2="63" y2="155" stroke="#b8935a" stroke-width="1.5" stroke-linecap="round"/>
  <line x1="130" y1="155" x2="137" y2="155" stroke="#b8935a" stroke-width="1.5" stroke-linecap="round"/>
  <line x1="79" y1="134" x2="74" y2="129" stroke="#b8935a" stroke-width="1.5" stroke-linecap="round"/>
  <line x1="121" y1="176" x2="126" y2="181" stroke="#b8935a" stroke-width="1.5" stroke-linecap="round"/>
  <line x1="121" y1="134" x2="126" y2="129" stroke="#b8935a" stroke-width="1.5" stroke-linecap="round"/>
  <line x1="79" y1="176" x2="74" y2="181" stroke="#b8935a" stroke-width="1.5" stroke-linecap="round"/>
  <!-- Unit name -->
  <text x="100" y="228" font-family="serif" font-size="11" fill="#b8935a"
        text-anchor="middle" letter-spacing="1">SUNBLOOD</text>
  <text x="100" y="246" font-family="serif" font-size="11" fill="#b8935a"
        text-anchor="middle" letter-spacing="1">PACK</text>
  <text x="100" y="264" font-family="serif" font-size="9" fill="#7a5a2a"
        text-anchor="middle" letter-spacing="2">SERAPHON</text>
</svg>
